<svg xmlns="http://www.w3.org/2000/svg"
     viewBox="0 0 512 512">

  <path fill-rule="evenodd" d="
    M 94 64
    H 418
    A 30 30 0 0 1 448 94
    V 418
    A 30 30 0 0 1 418 448
    H 94
    A 30 30 0 0 1 64 418
    V 94
    A 30 30 0 0 1 94 64
    Z

    M 96 96 H 416 V 128 H 96 Z

    M 96 160 H 184 V 224 H 96 Z

    M 216 160 H 304 V 224 H 216 Z

    M 328 160 H 416 V 224 H 328 Z

    M 96 256 H 184 V 320 H 96 Z

    M 216 256 H 304 V 320 H 216 Z

    M 328 256 H 416 V 320 H 328 Z

    M 96 352 H 184 V 416 H 96 Z

    M 216 352 H 304 V 416 H 216 Z

    M 328 352 H 416 V 416 H 328 Z
  "/>

</svg>
